<svg xmlns="http://www.w3.org/2000/svg" viewBox="0 0 517.72 401.35"><defs><style>.cls-1{fill:#eb5a46;}</style></defs><g id="Capa_2" data-name="Capa 2"><g id="Capa_1-2" data-name="Capa 1"><path class="cls-1" d="M48.72,79.7c16.74.3,31-7.17,44.91-15,15.16-8.55,27.94-20.35,40.29-32.46C151.07,15.41,170.76,3.54,194.85.57A74.28,74.28,0,0,1,228,4c13.68,4.64,27.69,7.51,42.25,6.54a38.52,38.52,0,0,0,14.61-3.4c21.16-10.3,42.45-8.67,63.51.16,15.18,6.36,28,16.35,39.55,27.9,13.51,13.46,28.32,25.29,45.25,34.12,12.38,6.45,25.32,11.53,39.81,10.46,2.9-.22,5.82-.4,8.71,1,4.86,2.42,6.39,6,3.84,10.63a403.57,403.57,0,0,1-22.84,36.17,481,481,0,0,1-46.77,57.25c-17.81,18.75-37,35.76-58.3,50.3-22.16,15.11-46.62,24-73.28,27.86-38.05,5.57-73.74-1.1-107.62-18.33-14.64-7.44-27.56-17.65-40.3-28C119.84,203.16,104.88,188,90.7,172a449.75,449.75,0,0,1-36.43-46.78c-6.81-10.07-13-20.55-19.6-30.77C32.5,91.13,31.08,88,33.17,84s5.73-3.76,9.15-4.22A48.76,48.76,0,0,1,48.72,79.7ZM262.39,250c3.12.37,9-.86,14.87-1.31a148.62,148.62,0,0,0,48.53-12.55c23.48-10.31,42.8-26.66,61.48-43.68a405.55,405.55,0,0,0,49.47-54.55c8.63-11.36,16.69-23.15,24.71-34.94,3.5-5.15,1.88-8-3.92-9.24a114.66,114.66,0,0,1-22.1-7.07c-26.5-11.42-47-30.88-67.94-49.89-20.07-18.21-43.6-25.38-70.66-18.95-10.37,2.47-20.33,6.4-31.23,7-15.33.86-29.52-3.43-44.05-7.1-21.28-5.37-41.15-1.33-59.66,10.81-15.53,10.18-27.13,24.72-41.81,35.84C102.79,77.51,84.38,88,63.35,93.55c-9.42,2.48-10.1,3.72-4.7,11.87,14,21.07,29,41.43,46.14,59.91s35.36,35.82,55.58,51.2C189.89,239,222.92,249.34,262.39,250Z"/><path class="cls-1" d="M353,383.6c-12.74-1.79-22.38-8.25-28.06-18.7-10.69-19.68-20.75-39.76-27.56-61.23a5.28,5.28,0,0,1,.14-1.83C314.57,302.06,355.85,362,353,383.6Z"/><path class="cls-1" d="M210,302.89c1.15,7.53-2.55,13.35-5.84,19.12-10.37,18.2-20.7,36.54-34.8,52.16-5.2,5.75-11,12.08-21,13,1.62-9.36,5.52-17,9.79-24.21,9.6-16.26,21.35-31,33.43-45.5a119.7,119.7,0,0,1,11.76-12.89C205.24,302.92,207,301.73,210,302.89Z"/><path class="cls-1" d="M255.62,401.35c-6-19.57-6.74-39.17-5.09-58.68.9-10.67-1.92-22.15,4.72-32,.35-.52,1.53-.47,2.27-.67C267.81,329.74,266.93,394.51,255.62,401.35Z"/><path class="cls-1" d="M0,82.11c.34-17.3,14.66-28.73,30.41-30.53,4.85-.55,8.4,1.78,9.22,6.63.9,5.27-2.83,8.22-7.26,8.39-11.27.43-16.19,7.27-17.89,17-1,5.81-3.64,8.25-9.24,7.67C-.59,90.65,0,86.17,0,82.11Z"/><path class="cls-1" d="M517.72,82.33c-.15,3.68.2,8-5.29,8.9S503.66,90,503.06,84c-1.07-10.73-7.32-16.24-18-17.46C480.42,66,477.37,63,478,57.91c.67-5.59,5.55-6.56,9.45-6.19A33.49,33.49,0,0,1,517.72,82.33Z"/><path class="cls-1" d="M260.05,201.18c-39.58.37-74.44-13.17-106.63-35.32-19.62-13.51-36.8-29.6-53-46.85-2.68-2.85-5.83-6.19-3.78-10.61,2-4.21,6-4.45,10.3-4.56,23.56-.58,44-10.06,63-23.07A90.3,90.3,0,0,1,218.3,64.65c9.32-.34,18.87,1.71,28.1,3.68,12.86,2.75,25.24.3,37.67-2,21-3.9,40.65,0,58.64,10.92,15.64,9.53,31.09,19.22,49,24a74,74,0,0,0,21.91,2.69c3.42-.13,6.18.46,8,3.82s.39,6-1.47,8.6C413,126.18,403.93,134.4,395,142.49a258.94,258.94,0,0,1-43.08,31.81c-20.59,12-41.88,22-66,24.61C277.25,199.84,268.72,201.46,260.05,201.18ZM123.7,118c0,4,1.87,6,4,7.89,13.7,12.17,27.52,24.11,43.38,33.61,5.78,3.45,10.34,3.89,16.49,1.4,15.26-6.2,31.42-9.21,47.76-10.67,13.9-1.25,27.79-1.81,41.86-.39,18.94,1.91,37.47,5.05,55.24,11.95,3.75,1.46,7.66,2.21,11,.25,17.85-10.52,34-23.28,49.19-37.38,1.76-1.65,2.94-3.48,2.44-6.38-6.51-3-13.14-6-20.41-2.76-30.62,13.82-63.14,18.9-96.27,20.38-25,1.12-50.07.49-74.89-3.67-19.9-3.34-39.55-7.5-57.91-16.3C137.89,112.23,130.91,115.05,123.7,118Zm96.85-38.18c-5.75-.26-11.35.95-16.92,2-13.75,2.68-24.9,10.7-36.35,18.09-2,1.28-4.75,2.2-4.28,4.83s3.21,3.63,5.58,4.3c5.64,1.57,11.33,3,17,4.36,26.82,6.42,54,8,81.53,7.48a369.91,369.91,0,0,0,58-5.5c8.64-1.54,17.1-4.13,25.6-6.39,2.24-.6,4.64-2,5-4.29.37-2.62-2-3.83-4.21-4.93a54.76,54.76,0,0,1-7-4.27c-20.82-14.67-43.24-19.24-68.24-12.59a64.07,64.07,0,0,1-27.66,1C239.33,82.34,230.15,79.42,220.55,79.79ZM259,163c-17.42-.52-34.54,1.93-51.59,5.07-2.9.54-4.94,2.29-5.37,4.74s.78,4.83,3.81,5.77c2,.6,3.72,1.76,5.82,2.31a186.25,186.25,0,0,0,28.47,5.23c23.62,2.48,46.74,1.16,69.42-6.32,3.4-1.12,6.36-2.54,6.34-6,0-4.15-3.82-5-7.24-5.73A208.39,208.39,0,0,0,259,163Z"/></g></g></svg>