<?xml version="1.0" encoding="utf-8"?>
<!-- Generator: Adobe Illustrator 26.0.1, SVG Export Plug-In . SVG Version: 6.00 Build 0)  -->
<svg version="1.1" id="Capa_1" xmlns="http://www.w3.org/2000/svg" xmlns:xlink="http://www.w3.org/1999/xlink" x="0px" y="0px"
	 viewBox="0 0 1920 1920" style="enable-background:new 0 0 1920 1920;" xml:space="preserve">
<style type="text/css">
	.st0{fill:#033631;}
	.st1{fill:#70ADA7;}
	.st2{fill:none;}
	.st3{fill:#70ADA7;stroke:#033631;stroke-width:50;stroke-linecap:round;stroke-linejoin:round;stroke-miterlimit:10;}
</style>
<g>
	<path class="st0" d="M170.6,1353v-12l24.1-8.4c16.1-4.8,26.7-12,31.9-21.7s7.8-22.5,7.8-38.6V640.8c0-16.1-2.8-28.9-8.4-38.5
		s-16.5-17.3-32.5-22.9l-22.9-9.6v-12h292.8c119.7,0,206.2,21.9,259.7,65.7s80.1,101.4,80.1,172.9c0,45.8-11,87.8-33.1,125.9
		c-22.1,38.2-58.5,68.5-109.1,91s-118.9,33.7-204.8,33.7h-41v221.7c0,31.3,15.7,51.8,47,61.5l36.1,10.8v12H170.6z M415.3,1022.8
		h45.8c39.3,0,71.5-6.4,96.4-19.3c24.9-12.8,43.4-35.3,55.4-67.5c12-32.1,18.1-76.7,18.1-133.8c0-57.8-6.6-102.8-19.9-135
		c-13.2-32.1-32.7-54.4-58.4-66.9c-25.7-12.5-57.8-18.7-96.4-18.7h-41V1022.8z"/>
	<path class="st0" d="M1528.6,1374.7c-77.9,0-148.4-15.9-211.5-47.6s-113.1-78.9-150-141.6s-55.4-139.4-55.4-230.2
		c0-69.1,11.2-129.7,33.7-182s53.2-96,92.2-131.3s84-61.8,135-79.5c51-17.7,105-26.5,162.1-26.5c45.8,0,88,5.2,126.5,15.7
		s74.7,24.9,108.5,43.4l4.8,148.2h-12l-60.2-96.4c-8-15.3-16.9-29.1-26.5-41.6c-9.6-12.4-21.7-21.9-36.1-28.3
		c-12.1-5.6-23.9-9.8-35.5-12.7c-11.7-2.8-26.3-4.2-44-4.2c-46.6,0-89,12.5-127.1,37.4s-68.7,66.1-91.6,123.5
		c-22.9,57.4-34.3,136-34.3,235.6c0,98.8,10.8,176.9,32.5,234.4s51.2,98.4,88.6,122.9c37.3,24.5,79.3,36.8,125.9,36.8
		c25.7,0,46.2-1.8,61.5-5.4c15.3-3.6,30.5-9,45.8-16.3c15.2-6.4,26.9-15.9,34.9-28.3s15.3-25.9,21.7-40.4l53-118.1h12l-3.6,172.3
		c-33.8,17.7-71.5,32.1-113.3,43.4C1624.1,1369.1,1578.4,1374.7,1528.6,1374.7z"/>
</g>
<polygon class="st1" points="1149,1099.3 1035.1,1163.8 1042.2,1411.5 1192.4,1393.9 "/>
<path id="Layer_6" class="st2" d="M452.8,1187.8c-18.1,43.7-22.2,78.4-18.4,105.8c0,0-290.3-78.6-290.3-290.3
	C144.2,1003.4,286.9,1218,452.8,1187.8z M1125.4,444.3c-24-36.4-50.6-32.4-50.6-32.4s-98,106-62,102c4.8-0.5,11,0.3,18,2
	c46,11.2,130.5,61.8,128,40C1152.2,499.6,1139.2,465.2,1125.4,444.3L1125.4,444.3z M1010.8,583.8c-4.6,41.4-12.2,89.1-19,128.6
	c0,0,53.7,86.5,230.4,81.3c-5.9-29.4-0.7-58.9,30.6-92.8c0,0,86-21.3,140-23.3s38-73.8,38-73.8s56-58,28-94h-154c0,0-24-80-126-74
	c-19.5,1.1-37.3,4-53.4,8.4c13.8,21,26.8,55.3,33.4,111.6c2.5,21.8-82-28.8-128-40C1020.4,535.2,1013.7,558,1010.8,583.8
	L1010.8,583.8z M1176.8,1353.8l-18-172.2c-19.1,18.8-39.4,36.2-60.2,52.3c-8.1,63.9-16.8,129.9-16.8,129.9s30.6,34.9,50.4,68.3
	l126.5-9.4C1246.8,1347.6,1176.8,1353.8,1176.8,1353.8L1176.8,1353.8z M996.8,1471.8c92,82,152,0,152,0
	c-1.2-10.9-7.8-25.2-16.5-39.7c-19.9-33.4-50.4-68.3-50.4-68.3s8.8-66,16.8-129.9c20.8-16.1,41.1-33.5,60.2-52.3
	c26.9-26.5,51.5-55.7,72-87.8c95.1-148.9,6.5-224.3-8.6-300c-176.7,5.1-230.4-81.3-230.4-81.3c-8,46.4-15,81.3-15,81.3
	s-72,65.9-146,128s-310,102.1-378,266.1c-18.1,43.7-22.2,78.4-18.4,105.8c10.5,75.3,80.4,95.2,80.4,95.2s-22,29.9,0,83.9l332-0.9
	c0,0,34-67.9-50-83c0,0,77.3-22.6,170.7-71.7L996.8,1471.8L996.8,1471.8z"/>
<g id="STROKES">
	<g id="XMLID_1_">
		<path class="st3" d="M1125.4,444.3c16.1-4.4,33.9-7.3,53.4-8.4c102-6,126,74,126,74h154c28,36-28,94-28,94s16,71.8-38,73.8
			s-140,23.3-140,23.3c-31.3,33.9-36.5,63.4-30.6,92.8c15.2,75.8,103.7,151.2,8.6,300c-20.5,32.1-45.1,61.3-72,87.8
			c-19.1,18.8-39.4,36.2-60.2,52.3c-8.1,63.9-16.8,129.9-16.8,129.9s30.6,34.9,50.4,68.3c8.7,14.5,15.3,28.8,16.5,39.7
			c0,0-60,82-152,0l-29.3-154.6c-93.4,49.1-170.7,71.7-170.7,71.7c84,15,50,83,50,83l-332,0.9c-22-54,0-83.9,0-83.9
			s-69.9-19.9-80.4-95.2c-3.8-27.4,0.2-62.1,18.4-105.8c68-164,304-204,378-266.1s146-128,146-128s7-35,15-81.3
			c6.8-39.5,14.4-87.2,19-128.6c2.9-25.9,9.6-48.6,20-68"/>
		<path class="st3" d="M1030.8,515.8c-7.1-1.7-13.2-2.5-18-2c-36,4,62-102,62-102s26.6-4,50.6,32.4c13.8,21,26.8,55.3,33.4,111.6
			C1161.3,577.6,1076.8,527.1,1030.8,515.8z"/>
		<path class="st3" d="M967.5,1317.2l-17.6-211.4"/>
		<path class="st3" d="M1098.7,1233.9c4.4-35,8.6-69.4,11.1-92.1c7-64,19-93.1,19-93.1"/>
		<path class="st3" d="M1158.9,1181.6l18,172.2c0,0,70-6.2,82,68.9l-126.5,9.4"/>
		<path class="st3" d="M787.8,1388.9l-137-17c0,0,138-8.8,124-173.4"/>
		<path class="st3" d="M434.4,1293.7c0,0-290.3-78.6-290.3-290.3c0,0,142.7,214.6,308.7,184.5"/>
		<path class="st3" d="M991.8,712.5c0,0,53.7,86.5,230.4,81.3"/>
	</g>
</g>
</svg>
